HIERARCHY
ROOT Hips
{
  OFFSET 3.13124 94.3669 -3.18751
  CHANNELS  6 Xposition Yposition Zposition Zrotation Xrotation Yrotation
  JOINT LeftUpLeg
  {
    OFFSET 8.64259 1.95398 -2.38835
    CHANNELS 3 Zrotation Xrotation Yrotation
    JOINT LeftLeg
    {
      OFFSET 43.7702 0 0
      CHANNELS 3 Zrotation Xrotation Yrotation
      JOINT LeftFoot
      {
        OFFSET 40.6238 0 0
        CHANNELS 3 Zrotation Xrotation Yrotation
        JOINT LeftToeBase
        {
          OFFSET 12.7242 0 0
          CHANNELS 3 Zrotation Xrotation Yrotation
          End Site
          {
            OFFSET 0 0 0
          }
        }
      }
    }
  }
  JOINT RightUpLeg
  {
    OFFSET -8.2249 1.95398 -2.59336
    CHANNELS 3 Zrotation Xrotation Yrotation
    JOINT RightLeg
    {
      OFFSET 43.5653 0 0
      CHANNELS 3 Zrotation Xrotation Yrotation
      JOINT RightFoot
      {
        OFFSET 40.6238 0 0
        CHANNELS 3 Zrotation Xrotation Yrotation
        JOINT RightToeBase
        {
          OFFSET 12.7242 0 0
          CHANNELS 3 Zrotation Xrotation Yrotation
          End Site
          {
            OFFSET 0 0 0
          }
        }
      }
    }
  }
  JOINT Spine
  {
    OFFSET 0.165834 0.87714 6.61349
    CHANNELS 3 Zrotation Xrotation Yrotation
    JOINT Spine1
    {
      OFFSET 7.38962 1.71661e-005 0
      CHANNELS 3 Zrotation Xrotation Yrotation
      JOINT Spine2
      {
        OFFSET 11.9445 1.14441e-005 0
        CHANNELS 3 Zrotation Xrotation Yrotation
        JOINT Spine3
        {
          OFFSET 14.7254 4.19617e-005 0
          CHANNELS 3 Zrotation Xrotation Yrotation
          JOINT Spine4
          {
            OFFSET 10.9679 0 0
            CHANNELS 3 Zrotation Xrotation Yrotation
            JOINT RightShoulder
            {
              OFFSET 2.46616 -1.6653 3.69651
              CHANNELS 3 Zrotation Xrotation Yrotation
              JOINT RightArm
              {
                OFFSET 13.0012 0 0
                CHANNELS 3 Zrotation Xrotation Yrotation
                JOINT RightForeArm
                {
                  OFFSET 28.7848 1.52588e-005 0
                  CHANNELS 3 Zrotation Xrotation Yrotation
                  JOINT RightHand
                  {
                    OFFSET 26.5688 1.52588e-005 0
                    CHANNELS 3 Zrotation Xrotation Yrotation
                    End Site
                    {
                      OFFSET 0 0 0
                    }
                  }
                }
              }
            }
            JOINT LeftShoulder
            {
              OFFSET 2.38034 -1.29275 -3.75231
              CHANNELS 3 Zrotation Xrotation Yrotation
              JOINT LeftArm
              {
                OFFSET 16.3182 6.10352e-005 0
                CHANNELS 3 Zrotation Xrotation Yrotation
                JOINT LeftForeArm
                {
                  OFFSET 27.0901 0 0
                  CHANNELS 3 Zrotation Xrotation Yrotation
                  JOINT LeftHand
                  {
                    OFFSET 24.5451 1.52588e-005 0
                    CHANNELS 3 Zrotation Xrotation Yrotation
                    End Site
                    {
                      OFFSET 0 0 0
                    }
                  }
                }
              }
            }
            JOINT Neck
            {
              OFFSET 5.0226 -0.0266342 0
              CHANNELS 3 Zrotation Xrotation Yrotation
              JOINT Head
              {
                OFFSET 6.69363 2.86102e-005 0
                CHANNELS 3 Zrotation Xrotation Yrotation
                End Site
                {
                  OFFSET 0 0 0
                }
              }
            }
          }
        }
      }
    }
  }
}
MOTION
Frames:	9
Frame Time:	0.0333333
4.19358 95.8556 -3.57704 17.4687 -89.9983 17.4723 -179.707 1.88871 90.4611 -7.59054 0.153359 0.0218721 62.6994 1.38997 0.70487 28.7808 5.87908e-006 2.48788e-006 179.839 1.81229 89.7835 -7.42784 -0.0237413 -0.00215682 62.645 -1.16309 -0.588705 28.7808 1.55118e-005 2.78194e-005 0.000321142 6.34021 -90.0041 14.1935 0.0035777 1.91383e-006 2.52251 0.00340208 -1.41981e-006 -20.0126 0.00119046 -2.42811e-006 1.59028e-015 0.00119484 -1.55301e-018 101.246 -17.7976 -84.4875 -10.0692 28.7747 -4.6299 -7.03807 -28.8936 -10.2062 1.82534 0.111211 1.5422 -78.8255 -20.9984 94.6394 18.6299 -30.2244 -3.92004 5.94343 29.7386 -9.87665 -2.0746 -0.074855 1.77484 1.75246 -0.0021783 -0.00608697 -7.40545 0.00280919 0.0100485 
4.18331 95.8419 -3.57947 13.1408 -89.9731 13.1978 -179.672 3.0666 90.5529 -9.93656 0.396861 0.040627 63.4764 1.34111 0.696082 28.7808 5.87908e-006 2.48788e-006 179.842 1.76673 89.8471 -7.28445 0.0518101 -0.00209829 62.5867 -1.18753 -0.599532 28.7808 1.55118e-005 2.78194e-005 0.00509968 6.33989 -90.0637 14.1935 0.0035777 1.91383e-006 2.52251 0.00340208 -1.41981e-006 -20.0126 0.00119046 -2.42811e-006 4.77083e-015 0.00119484 -1.16475e-018 101.293 -17.8154 -84.4841 -10.139 28.7624 -4.74702 -6.91641 -28.8835 -9.96347 1.80742 0.110974 1.44341 -78.7928 -20.9853 94.5833 18.6189 -30.4658 -3.55327 6.4267 29.1063 -10.9882 -2.41779 -0.0936268 3.19403 1.73773 -0.0305869 -0.0935408 -7.32752 0.0463178 0.158314 
4.17761 95.8977 -3.57593 -35.6956 -89.9603 -35.6721 -179.693 1.45361 90.4949 -6.61285 0.253098 0.0258088 62.2198 1.49296 0.758495 28.7808 5.87908e-006 2.48788e-006 179.866 1.04757 89.8168 -5.77787 0.0440765 -0.00117237 61.8305 -1.16834 -0.578658 28.7808 1.55118e-005 2.78194e-005 0.00119428 6.34019 -90.0152 14.1935 0.0035777 1.91383e-006 2.52251 0.00340208 -1.41981e-006 -20.0126 0.00119046 -2.42811e-006 4.77083e-015 0.00119484 1.16475e-018 101.258 -17.7517 -84.496 -10.1126 28.7444 -4.75396 -6.91519 -28.9621 -9.93678 1.76851 0.106638 1.34076 -78.8135 -20.9698 94.621 18.8454 -30.2223 -3.89089 5.8434 29.8846 -9.64834 -2.02803 -0.0733822 1.2703 1.79877 0.0383505 -0.0356351 -7.38537 0.0726681 0.12423 
4.16669 95.873 -3.56746 -68.2346 -89.9728 -68.2249 -179.687 1.76525 90.4999 -7.31974 0.287903 0.0290135 62.5329 1.47252 0.750686 28.7808 5.87908e-006 2.48788e-006 179.855 1.59599 89.809 -6.97262 0.00733471 -0.000334543 62.4094 -1.1843 -0.597445 28.7808 1.55118e-005 2.78194e-005 0.000494554 6.34021 -90.0066 14.1935 0.0035777 1.91383e-006 2.52251 0.00340208 -1.41981e-006 -20.0126 0.00119046 -2.42811e-006 3.18055e-015 0.00119484 -2.71776e-018 101.198 -17.7044 -84.5281 -10.1354 28.649 -4.95107 -6.63779 -28.8841 -9.39899 1.62549 0.0953683 1.17673 -78.8584 -20.9439 94.6224 18.8948 -30.259 -3.85774 5.89582 29.9264 -9.74363 -2.09757 -0.0768262 1.3477 1.76976 0.087602 -0.0317682 -7.38323 0.134578 0.173728 
4.15941 95.8946 -3.56708 -60.4374 -89.9449 -60.4574 -179.702 0.879665 90.4627 -5.45143 0.226598 0.0293551 61.6533 1.5016 0.747907 28.7808 5.87908e-006 2.48788e-006 179.858 1.49713 89.7805 -6.7268 -8.16938e-005 0.00048739 62.2652 -1.21085 -0.61209 28.7808 1.55118e-005 2.78194e-005 -0.0016766 6.34018 -89.9794 14.1935 0.0035777 -4.17083e-005 2.52251 0.00340208 -4.41184e-005 -20.0126 0.00119046 -4.86382e-005 9.66555e-010 0.00119484 -4.63487e-005 101.192 -17.68 -84.5765 -10.1702 28.5888 -5.06704 -6.46052 -28.8706 -9.04285 1.56414 0.0877626 0.955644 -78.8401 -20.8939 94.6429 18.8911 -30.1484 -4.12367 5.56037 29.8561 -9.10161 -1.86416 -0.0666332 1.00835 1.79435 0.157184 -0.0814021 -7.42428 0.182894 0.279586 
4.15477 95.9194 -3.56529 -60.235 -89.927 -60.2279 -179.7 0.831854 90.4933 -5.33479 0.176396 0.0286896 61.5556 1.49745 0.74638 28.7808 5.87908e-006 2.48788e-006 179.878 0.821866 89.8154 -5.30695 0.0311741 0.0012945 61.5645 -1.1693 -0.575996 28.7808 1.55118e-005 2.78194e-005 3.02824e-005 6.34021 -89.9994 14.1935 0.0035777 0.000916595 2.52251 0.00340208 0.000899442 -20.0126 0.00119046 0.000979916 -2.04264e-008 0.00119484 0.000979502 101.178 -17.7062 -84.5704 -10.1527 28.5136 -5.30185 -6.23888 -28.8431 -8.59329 1.35332 0.0748696 0.831119 -78.8424 -20.8514 94.6804 18.8668 -30.1274 -4.21626 5.4798 29.781 -8.95722 -1.84603 -0.0662744 0.918159 1.74383 0.214624 -0.173368 -7.35412 0.225724 0.390308 
4.14392 95.9252 -3.56581 -27.9723 -89.9225 -27.963 -179.695 0.925609 90.5122 -5.45179 0.188765 0.0275391 61.5515 1.48913 0.745586 28.7808 5.87908e-006 2.48788e-006 179.883 0.888693 89.8236 -5.37938 0.0626454 0.00208785 61.5501 -1.22874 -0.61148 28.7808 1.55118e-005 2.78194e-005 0.0013742 6.3402 -89.9872 14.1935 0.0035777 0.023494 2.5225 0.00340208 0.0230758 -20.0126 0.00119046 0.0250834 -5.22904e-007 0.00119484 0.0250746 101.231 -17.8828 -84.5016 -10.2845 27.9284 -6.80208 -4.51451 -28.466 -5.06538 0.601513 0.0201866 -0.601732 -78.8248 -20.7262 94.6461 18.8596 -30.0941 -4.29377 5.40056 29.8322 -8.78061 -1.83462 -0.067442 0.740646 1.85932 0.225036 -0.336737 -7.47739 0.256028 0.41369 
4.15259 95.891 -3.55367 -77.1452 -89.9532 -77.1085 -179.676 2.04644 90.5222 -7.9108 0.273914 0.0264254 62.7221 1.45915 0.744988 28.7808 5.87908e-006 2.48788e-006 179.87 1.26179 89.8475 -6.29478 0.0381499 0.0028685 62.0472 -1.20014 -0.600318 28.7808 1.55118e-005 2.78194e-005 0.00230281 6.34014 -90.03 14.1935 0.0035777 -0.000643143 2.52251 0.00340208 -0.000642408 -20.0126 0.00119046 -0.000698772 1.44456e-008 0.00119484 -0.000692706 101.14 -17.7016 -84.5641 -10.0778 28.3511 -5.67904 -5.8399 -28.7182 -7.79302 1.09244 0.0547258 0.419734 -78.8788 -20.8209 94.6846 18.7961 -30.2003 -4.08542 5.68536 29.5973 -9.40067 -1.96759 -0.0693547 1.32978 1.6946 0.244645 -0.227402 -7.46313 0.269014 0.442586 
4.14723 95.9094 -3.55327 -16.232 -89.9521 -16.2066 -179.689 1.87501 90.5207 -7.46575 0.23516 0.0258669 62.4556 1.45513 0.744103 28.7808 5.87908e-006 2.48788e-006 179.87 0.896836 89.8382 -5.46512 0.0629414 0.00363753 61.6158 -1.2057 -0.596912 28.7808 1.55118e-005 2.78194e-005 0.00283744 6.34011 -90.0357 14.1935 0.0035777 -3.98342e-005 2.52251 0.00340208 -3.96905e-005 -20.0126 0.00119046 -4.24862e-005 8.86392e-010 0.00119484 -4.25047e-005 101.172 -17.7503 -84.5079 -10.0774 28.3219 -5.8034 -5.74643 -28.8168 -7.58397 1.10123 0.0523393 0.223829 -78.8583 -20.827 94.7039 18.7654 -30.1417 -4.30258 5.50464 29.6465 -9.02164 -1.88871 -0.0714752 1.15065 1.72444 0.231001 -0.240996 -7.51396 0.266263 0.438312 
